<?xml version="1.0" standalone="no"?>
<!DOCTYPE svg PUBLIC "-//W3C//DTD SVG 20010904//EN"
 "http://www.w3.org/TR/2001/REC-SVG-20010904/DTD/svg10.dtd">
<svg version="1.0" xmlns="http://www.w3.org/2000/svg"
 width="512.000000pt" height="512.000000pt" viewBox="0 0 512.000000 512.000000"
 preserveAspectRatio="xMidYMid meet">

<g transform="translate(0.000000,512.000000) scale(0.100000,-0.100000)"
fill="#FF3300" stroke="none">
<path d="M2505 5096 c-56 -26 -88 -70 -92 -128 -5 -66 19 -114 71 -144 30 -17
61 -22 174 -27 728 -35 1370 -392 1765 -984 72 -107 164 -273 152 -273 -6 0
-672 370 -744 413 l-35 21 30 -45 c63 -92 59 4 59 -1389 l0 -1275 -26 -55
c-97 -203 -368 -249 -516 -87 -21 23 -326 415 -678 872 l-640 830 -5 -785 -5
-785 -24 -50 c-32 -64 -93 -124 -156 -155 -39 -18 -67 -24 -127 -24 -42 -1
-76 -2 -75 -2 1 -1 258 -153 572 -338 314 -186 574 -341 578 -345 15 -15 -244
-23 -380 -11 -553 45 -1031 263 -1417 644 -688 680 -858 1721 -424 2590 91
182 189 326 335 493 69 79 78 102 70 170 -9 84 -96 142 -183 123 -45 -10 -100
-62 -207 -195 -290 -361 -466 -765 -539 -1240 -26 -176 -29 -509 -5 -680 81
-575 328 -1074 729 -1475 445 -443 1002 -696 1637 -741 316 -22 674 25 981
129 782 267 1398 913 1626 1706 168 585 123 1229 -126 1789 -184 413 -510 794
-900 1050 -227 149 -567 291 -840 351 -232 51 -577 79 -635 52z"/>
<path d="M1850 4998 c-142 -73 -93 -283 67 -283 58 0 93 20 131 76 19 27 23
43 19 82 -10 113 -119 176 -217 125z"/>
<path d="M1249 4738 c-52 -30 -83 -88 -76 -145 17 -153 220 -187 287 -48 64
133 -83 268 -211 193z"/>
<path d="M2006 3869 c6 -8 283 -367 614 -799 331 -432 608 -792 616 -800 12
-12 14 42 14 380 l-1 395 -102 68 c-56 38 -331 223 -612 411 -563 378 -545
366 -529 345z"/>
</g>
</svg>
